<svg xmlns="http://www.w3.org/2000/svg"><symbol id="anchor" viewBox="0 0 15 8"><path d="M11.9 0H10s1 .7 1.2 2h.6c.7 0 1.2.6 1.2 1.3v1.3c0 .7-.5 1.4-1.2 1.4H7.5c-.7 0-1.3-.6-1.3-1.4V3.3H4.4v1.3c0 .5.1.9.3 1.4.5 1.2 1.6 2 2.9 2H12c1.7 0 3.1-1.5 3.1-3.4V3.3C15 1.5 13.6 0 11.9 0"/><path d="M10.4 2C9.9.8 8.8 0 7.5 0H3.1C1.4 0 0 1.5 0 3.3v1.3C0 6.5 1.4 8 3.1 8H5s-1-.7-1.3-2h-.6c-.7 0-1.3-.6-1.3-1.4V3.3c0-.7.6-1.3 1.3-1.3h4.4c.7 0 1.2.6 1.2 1.3v1.3h1.9V3.3c0-.5-.1-.9-.2-1.3"/></symbol><symbol id="divider" viewBox="0 0 104 14"><title>divider</title><path d="M2 12L12 2l10 10L32 2l10 10L52 2l10 10L72 2l10 10L92 2l10 10" stroke-width="4" fill-rule="evenodd" stroke-linecap="round" stroke-linejoin="round"/></symbol><symbol id="dribbble" viewBox="0 0 30 30"><path d="M24.9 6.9c-.3.4-2.4 3.1-7.2 5.1.3.6.6 1.2.8 1.9.1.2.2.4.3.7 4.3-.5 8.5.3 8.9.4.1-3.1-1-5.9-2.8-8.1M12 2.6c.4.5 2.7 3.6 4.8 7.5 4.6-1.7 6.5-4.3 6.7-4.6-2.3-2-5.2-3.2-8.5-3.2-1-.1-2 0-3 .3m-9.5 9.8c.6 0 5.9 0 11.8-1.6C12.2 7 9.9 3.9 9.5 3.4c-3.5 1.7-6.2 5-7 9m3 11.2c.3-.5 3.8-6.3 10.4-8.5.2-.1.3-.1.5-.2-.3-.7-.7-1.5-1-2.2C9 14.6 2.8 14.5 2.2 14.5v.4c0 3.4 1.2 6.4 3.3 8.7M20 26.8c-.2-1.1-.9-5-2.7-9.7h-.1c-7.2 2.5-9.8 7.5-10.1 8 2.2 1.7 4.9 2.7 7.9 2.7 1.8 0 3.5-.3 5-1m7.7-9.7c-.4-.1-4-1.2-8-.5 1.7 4.6 2.4 8.4 2.5 9.1 2.8-2 4.9-5.1 5.5-8.6M15 30C6.7 30 0 23.3 0 15S6.7 0 15 0s15 6.7 15 15-6.7 15-15 15"/></symbol><symbol id="github" viewBox="115 1 31 30"><path d="M115 16c0 6.628 4.298 12.25 10.258 14.234.75.138 1.024-.326 1.024-.723 0-.356-.013-1.3-.02-2.551-4.172.906-5.053-2.011-5.053-2.011-.682-1.732-1.666-2.195-1.666-2.195-1.361-.93.104-.911.104-.911 1.505.105 2.297 1.546 2.297 1.546 1.338 2.292 3.511 1.63 4.366 1.247.136-.97.523-1.631.952-2.006-3.33-.379-6.833-1.666-6.833-7.414 0-1.637.585-2.976 1.545-4.025-.155-.38-.67-1.904.146-3.97 0 0 1.26-.403 4.125 1.538 1.197-.333 2.48-.499 3.756-.505 1.273.006 2.557.172 3.755.505 2.864-1.941 4.12-1.538 4.12-1.538.82 2.066.305 3.59.15 3.97.961 1.049 1.542 2.388 1.542 4.025 0 5.763-3.507 7.03-6.849 7.402.539.463 1.019 1.378 1.019 2.778 0 2.005-.019 3.623-.019 4.115 0 .401.27.868 1.031.721 5.957-1.988 10.25-7.606 10.25-14.231C145 7.716 138.284 1 130 1 121.716 1 115 7.716 115 16z"/></symbol><symbol id="greaaat" viewBox="0 0 20 34"><path d="M3 33.1c-.4 0-.8-.2-1.1-.5-.3-.3-.4-.7-.4-1 0-.4.2-.8.5-1.1l10.6-10c.6-.6 1.6-.5 2.1.1.3.3.4.7.4 1 0 .4-.2.8-.5 1.1L4 32.7c-.3.3-.6.4-1 .4zm2.9-10.4c-.4 0-.8-.2-1.1-.5-.3-.3-.4-.7-.4-1 0-.4.2-.8.5-1.1l3.6-3.4c-3.9-.6-7-4-7-8.1C1.5 4.1 5.1.4 9.6.4h8.1c.8 0 1.5.7 1.5 1.5s-.7 1.5-1.5 1.5h-1.8c1.1 1.4 1.8 3.2 1.8 5.2 0 2.8-1.4 5.2-3.5 6.7l-7.2 7c-.3.3-.7.4-1.1.4zM9.6 3.5c-2.8 0-5.1 2.3-5.1 5.2s2.3 5.2 5.1 5.2c1 0 1.9-.3 2.7-.8l.3-.3c.1-.1.3-.2.5-.3 1-.9 1.7-2.3 1.7-3.8-.1-2.9-2.4-5.2-5.2-5.2z"/></symbol><symbol id="linkedin" viewBox="61 0 30 30"><path d="M86.56 25.566h-4.446v-6.96c0-1.662-.03-3.798-2.31-3.798-2.316 0-2.67 1.806-2.67 3.672v7.086h-4.446V11.25h4.266v1.956h.06c.594-1.128 2.046-2.31 4.212-2.31 4.506 0 5.334 2.964 5.334 6.822v7.848M67.672 9.288a2.58 2.58 0 1 1 0-5.16 2.58 2.58 0 0 1 0 5.16m2.226 16.278h-4.452V11.25h4.452v14.316M88.78 0H63.214C61.99 0 61 .966 61 2.16v25.674c0 1.2.99 2.166 2.214 2.166H88.78c1.224 0 2.22-.966 2.22-2.166V2.16C91 .966 89.998 0 88.78 0"/></symbol><symbol id="lock" viewBox="0 0 12 16"><path d="M4 4a2 2 0 0 1 4 0v2H4V4zm6 0a4 4 0 0 0-8 0v2a2 2 0 0 0-2 2v6a2 2 0 0 0 2 2h8a2 2 0 0 0 2-2V8a2 2 0 0 0-2-2V4z" fill-rule="evenodd"/></symbol><symbol id="strom" viewBox="0 0 10 16"><title>strom</title><path d="M4.774 14.933v-3.825a.455.455 0 0 0-.455-.455H.456a.455.455 0 0 1-.41-.654L4.783.257c.211-.434.864-.284.864.198v4.508c0 .251.204.455.455.455h3.443c.334 0 .554.348.41.65l-4.315 9.06c-.21.438-.866.29-.866-.195" fill-rule="evenodd"/></symbol><symbol id="twitter" viewBox="0 -1 37 31"><path d="M32.582 4.74a7.6 7.6 0 0 0 3.33-4.186 15.292 15.292 0 0 1-4.807 1.84A7.553 7.553 0 0 0 25.574 0a7.573 7.573 0 0 0-7.377 9.297 21.523 21.523 0 0 1-15.62-7.91 7.538 7.538 0 0 0-1.026 3.804 7.562 7.562 0 0 0 3.368 6.3 7.515 7.515 0 0 1-3.434-.945v.096a7.574 7.574 0 0 0 6.078 7.423 7.721 7.721 0 0 1-1.993.266c-.488 0-.96-.045-1.426-.134.967 3.005 3.758 5.2 7.074 5.258a15.202 15.202 0 0 1-9.408 3.242c-.613 0-1.21-.037-1.81-.104a21.6 21.6 0 0 0 11.617 3.39c13.935 0 21.556-11.535 21.556-21.534 0-.325-.01-.657-.024-.982a15.323 15.323 0 0 0 3.78-3.914 14.876 14.876 0 0 1-4.348 1.19l.001-.003z"/></symbol></svg>