<?xml version="1.0" encoding="utf-8"?>
<svg version="1.1" id="Calque_1" xmlns="http://www.w3.org/2000/svg" xmlns:xlink="http://www.w3.org/1999/xlink" x="0px" y="0px"
	 viewBox="0 0 15 8" style="enable-background:new 0 0 15 8;" xml:space="preserve">
<g id="anchor" transform="translate(0.000000, 25.000000)">
	<path id="Fill-1" d="M11.9-25H10c0,0,1,0.7,1.2,2h0.6h0c0.7,0,1.2,0.6,1.2,1.3v1.3c0,0.7-0.5,1.4-1.2,1.4H7.5
		c-0.7,0-1.3-0.6-1.3-1.4v-1.3H4.4v1.3c0,0.5,0.1,0.9,0.3,1.4c0.5,1.2,1.6,2,2.9,2h4.4c1.7,0,3.1-1.5,3.1-3.4v-1.3
		C15-23.5,13.6-25,11.9-25"/>
	<path id="Fill-3" d="M10.4-23c-0.5-1.2-1.6-2-2.9-2H3.1C1.4-25,0-23.5,0-21.7v1.3C0-18.5,1.4-17,3.1-17H5
		c0,0-1-0.7-1.3-2H3.1c-0.7,0-1.3-0.6-1.3-1.4v-1.3c0-0.7,0.6-1.3,1.3-1.3h4.4h0c0.7,0,1.2,0.6,1.2,1.3v1.3v0h1.9v0v-1.3
		C10.6-22.2,10.5-22.6,10.4-23"/>
</g>
</svg>
