<?xml version="1.0" encoding="utf-8"?>
<!-- Generator: Adobe Illustrator 19.2.1, SVG Export Plug-In . SVG Version: 6.00 Build 0)  -->
<svg version="1.1" id="Calque_1" xmlns="http://www.w3.org/2000/svg" xmlns:xlink="http://www.w3.org/1999/xlink" x="0px" y="0px"
	 viewBox="0 0 15 8" style="enable-background:new 0 0 15 8;" xml:space="preserve">
<g id="Symbols">
	<g id="Project-item" transform="translate(0.000000, -25.000000)">
		<g id="anchor" transform="translate(0.000000, 25.000000)">
			<path id="Fill-1" d="M11.8,0.5H9.9c0,0,1,0.7,1.2,1.9h0.6h0c0.7,0,1.2,0.5,1.2,1.2v1.2c0,0.7-0.5,1.3-1.2,1.3H7.5
				c-0.7,0-1.3-0.6-1.3-1.3V3.6H4.3v1.2c0,0.4,0.1,0.9,0.3,1.3C5.1,7.2,6.2,8,7.5,8h4.3c1.7,0,3.1-1.4,3.1-3.1V3.6
				C14.9,1.9,13.5,0.5,11.8,0.5"/>
			<path id="Fill-3" class="st0" d="M10.3,2.4C9.8,1.3,8.7,0.5,7.5,0.5H3.1C1.4,0.5,0,1.9,0,3.6v1.2C0,6.6,1.4,8,3.1,8H5
				c0,0-1-0.7-1.2-1.9H3.1c-0.7,0-1.3-0.6-1.3-1.3V3.6c0-0.7,0.6-1.2,1.3-1.2h4.3h0c0.7,0,1.2,0.5,1.2,1.2v1.2v0h1.9v0V3.6
				C10.5,3.2,10.5,2.8,10.3,2.4"/>
		</g>
	</g>
</g>
</svg>
