<?xml version="1.0" encoding="utf-8"?>
<!-- Generator: Adobe Illustrator 19.2.1, SVG Export Plug-In . SVG Version: 6.00 Build 0)  -->
<svg version="1.1" id="Calque_1" xmlns="http://www.w3.org/2000/svg" xmlns:xlink="http://www.w3.org/1999/xlink" x="0px" y="0px"
	 viewBox="0 0 30 30" style="enable-background:new 0 0 30 30;" xml:space="preserve">
<g id="Page-1">
	<g id="Desktop-HD" transform="translate(-1140.000000, -3672.000000)">
		<g id="FOOTER" transform="translate(20.000000, 3596.000000)">
			<g id="social" transform="translate(951.000000, 75.000000)">
				<path id="dribbble" d="M193.9,7.9c-0.3,0.4-2.4,3.1-7.2,5.1c0.3,0.6,0.6,1.2,0.8,1.9c0.1,0.2,0.2,0.4,0.3,0.7
					c4.3-0.5,8.5,0.3,8.9,0.4C196.8,12.9,195.7,10.1,193.9,7.9 M181,3.6c0.4,0.5,2.7,3.6,4.8,7.5c4.6-1.7,6.5-4.3,6.7-4.6
					c-2.3-2-5.2-3.2-8.5-3.2C183,3.2,182,3.3,181,3.6 M171.5,13.4c0.6,0,5.9,0,11.8-1.6c-2.1-3.8-4.4-6.9-4.8-7.4
					C175,6.1,172.3,9.4,171.5,13.4 M174.5,24.6c0.3-0.5,3.8-6.3,10.4-8.5c0.2-0.1,0.3-0.1,0.5-0.2c-0.3-0.7-0.7-1.5-1-2.2
					c-6.4,1.9-12.6,1.8-13.2,1.8c0,0.1,0,0.3,0,0.4C171.2,19.3,172.4,22.3,174.5,24.6 M189,27.8c-0.2-1.1-0.9-5-2.7-9.7
					c0,0-0.1,0-0.1,0c-7.2,2.5-9.8,7.5-10.1,8c2.2,1.7,4.9,2.7,7.9,2.7C185.8,28.8,187.5,28.5,189,27.8 M196.7,18.1
					c-0.4-0.1-4-1.2-8-0.5c1.7,4.6,2.4,8.4,2.5,9.1C194,24.7,196.1,21.6,196.7,18.1 M184,31c-8.3,0-15-6.7-15-15c0-8.3,6.7-15,15-15
					c8.3,0,15,6.7,15,15C199,24.3,192.3,31,184,31"/>
			</g>
		</g>
	</g>
</g>
</svg>
