<svg width="31px" height="30px" viewBox="115 1 31 30" version="1.1" xmlns="http://www.w3.org/2000/svg" xmlns:xlink="http://www.w3.org/1999/xlink">
    <path d="M115,16.000705 C115,22.6280883 119.297624,28.2498995 125.258309,30.234339 C126.008805,30.3715462 126.282298,29.9083568 126.282298,29.5105481 C126.282298,29.1550986 126.269406,28.2112236 126.262039,26.9597836 C122.089652,27.8659035 121.209316,24.9486394 121.209316,24.9486394 C120.526963,23.2165138 119.543492,22.7542453 119.543492,22.7542453 C118.181549,21.8241831 119.646627,21.8426002 119.646627,21.8426002 C121.152223,21.9484984 121.944157,23.3887134 121.944157,23.3887134 C123.282157,25.680718 125.455372,25.0186242 126.309924,24.6355491 C126.44621,23.6658903 126.832969,23.0047174 127.262086,22.62993 C123.931359,22.2514592 120.429353,20.9641059 120.429353,15.2161377 C120.429353,13.5788601 121.014095,12.2399389 121.973624,11.1910867 C121.818921,10.811695 121.304164,9.28676147 122.12004,7.22128687 C122.12004,7.22128687 123.379768,6.81795299 126.245464,8.75911236 C127.441653,8.42576336 128.725323,8.26000972 130.000705,8.2544846 C131.274246,8.26000972 132.557915,8.42576336 133.755946,8.75911236 C136.619801,6.81795299 137.876766,7.22128687 137.876766,7.22128687 C138.695405,9.28676147 138.180647,10.811695 138.025944,11.1910867 C138.987315,12.2399389 139.568374,13.5788601 139.568374,15.2161377 C139.568374,20.9788395 136.060842,22.2468549 132.719065,22.6179589 C133.257764,23.0811483 133.737529,23.9964767 133.737529,25.3961742 C133.737529,27.4008725 133.719112,29.0188122 133.719112,29.5105481 C133.719112,29.9120402 133.988922,30.378913 134.750468,30.2324973 C140.706549,28.2443744 145.000489,22.6262466 145.000489,16.000705 C145.000489,7.71578524 138.283783,1 129.998863,1 C121.715785,1 115,7.71578524 115,16.000705 Z" id="github"></path>
</svg>
