<svg class="hero-bigLetters" width="609" height="483" viewBox="0 0 609 483" xmlns="http://www.w3.org/2000/svg"><path d="M390.941 0v308.192c0 35.185-7.873 66.026-23.62 92.523-15.745 26.497-38.496 46.804-68.25 60.922-29.756 14.117-64.94 21.175-105.555 21.175-61.248 0-108.812-15.691-142.694-47.075C16.941 404.353 0 361.404 0 306.889V0h100.667v291.577c0 36.705 7.385 63.637 22.154 80.795s39.202 25.737 73.301 25.737c33.013 0 56.958-8.634 71.836-25.9 14.877-17.267 22.316-44.361 22.316-81.284V0H390.94zm116.631 476.297V0h100.993v476.297H507.572z" fill="#171717" fill-rule="evenodd"/></svg>
