<?xml version="1.0" encoding="utf-8"?>
<!-- Generator: Adobe Illustrator 19.2.1, SVG Export Plug-In . SVG Version: 6.00 Build 0)  -->
<svg version="1.1" id="Calque_1" xmlns="http://www.w3.org/2000/svg" xmlns:xlink="http://www.w3.org/1999/xlink" x="0px" y="0px"
	 viewBox="0 0 20 34" style="enable-background:new 0 0 20 34;" xml:space="preserve">
<g id="Page-1">
	<g id="Desktop-HD" transform="translate(-1202.000000, -3670.000000)">
		<g id="FOOTER" transform="translate(20.000000, 3596.000000)">
			<g id="social" transform="translate(951.000000, 75.000000)">
				<g id="greaaat">
					<path d="M234,32.1c-0.4,0-0.8-0.2-1.1-0.5c-0.3-0.3-0.4-0.7-0.4-1c0-0.4,0.2-0.8,0.5-1.1l10.6-10
						c0.6-0.6,1.6-0.5,2.1,0.1c0.3,0.3,0.4,0.7,0.4,1c0,0.4-0.2,0.8-0.5,1.1l-10.6,10C234.7,32,234.4,32.1,234,32.1z M236.9,21.7
						c-0.4,0-0.8-0.2-1.1-0.5c-0.3-0.3-0.4-0.7-0.4-1c0-0.4,0.2-0.8,0.5-1.1l3.6-3.4c-3.9-0.6-7-4-7-8.1c0-4.5,3.6-8.2,8.1-8.2h8.1
						c0.8,0,1.5,0.7,1.5,1.5s-0.7,1.5-1.5,1.5h-1.8c1.1,1.4,1.8,3.2,1.8,5.2c0,2.8-1.4,5.2-3.5,6.7l-7.2,7
						C237.7,21.6,237.3,21.7,236.9,21.7z M240.6,2.5c-2.8,0-5.1,2.3-5.1,5.2s2.3,5.2,5.1,5.2c1,0,1.9-0.3,2.7-0.8l0.3-0.3
						c0.1-0.1,0.3-0.2,0.5-0.3c1-0.9,1.7-2.3,1.7-3.8C245.7,4.8,243.4,2.5,240.6,2.5z"/>
				</g>
			</g>
		</g>
	</g>
</g>
</svg>
