
<svg width="30px" height="30px" viewBox="61 0 30 30" version="1.1" xmlns="http://www.w3.org/2000/svg" xmlns:xlink="http://www.w3.org/1999/xlink">
    <path d="M86.56,25.566 L82.114,25.566 L82.114,18.606 C82.114,16.944 82.084,14.808 79.804,14.808 C77.488,14.808 77.134,16.614 77.134,18.48 L77.134,25.566 L72.688,25.566 L72.688,11.25 L76.954,11.25 L76.954,13.206 L77.014,13.206 C77.608,12.078 79.06,10.896 81.226,10.896 C85.732,10.896 86.56,13.86 86.56,17.718 L86.56,25.566 M67.672,9.288 C66.244,9.288 65.092,8.13 65.092,6.708 C65.092,5.286 66.244,4.128 67.672,4.128 C69.094,4.128 70.252,5.286 70.252,6.708 C70.252,8.136 69.094,9.288 67.672,9.288 M69.898,25.566 L65.446,25.566 L65.446,11.25 L69.898,11.25 L69.898,25.566 M88.78,0 L63.214,0 C61.99,0 61,0.966 61,2.16 L61,27.834 C61,29.034 61.99,30 63.214,30 L88.78,30 C90.004,30 91,29.034 91,27.834 L91,2.16 C91,0.966 89.998,0 88.78,0" id="linkedin"></path>
</svg>
