<svg width="37px" height="31px" viewBox="0 -1 37 31" version="1.1" xmlns="http://www.w3.org/2000/svg" xmlns:xlink="http://www.w3.org/1999/xlink">
    <path d="M32.582,4.74 C34.147,3.803 35.344,2.32 35.912,0.554 C34.45,1.418 32.825,2.054 31.105,2.394 C29.717,0.915 27.754,-3.55271368e-15 25.574,-3.55271368e-15 C21.387,-3.55271368e-15 17.997,3.39 17.997,7.57 C17.997,8.16 18.063,8.743 18.197,9.297 C11.897,8.98 6.314,5.967 2.577,1.387 C1.927,2.503 1.551,3.803 1.551,5.191 C1.551,7.821 2.888,10.133 4.919,11.491 C3.679,11.455 2.511,11.115 1.485,10.546 L1.485,10.642 C1.485,14.314 4.1,17.372 7.563,18.065 C6.928,18.235 6.256,18.331 5.57,18.331 C5.082,18.331 4.61,18.286 4.144,18.197 C5.111,21.202 7.902,23.397 11.218,23.455 C8.626,25.485 5.362,26.697 1.81,26.697 C1.197,26.697 0.6,26.66 0,26.593 C3.36,28.727 7.34,29.983 11.617,29.983 C25.552,29.983 33.173,18.448 33.173,8.449 C33.173,8.124 33.163,7.792 33.149,7.467 C34.634,6.404 35.911,5.067 36.929,3.553 C35.572,4.159 34.109,4.565 32.581,4.743 L32.582,4.74 Z" id="twitter"></path>
</svg>
